<svg xmlns="http://www.w3.org/2000/svg" xmlns:xlink="http://www.w3.org/1999/xlink" width="1080" zoomAndPan="magnify" viewBox="0 0 810 809.999993" height="1080" preserveAspectRatio="xMidYMid meet" version="1.0"><defs><clipPath id="a4a00f4c41"><path d="M 8.355469 8.355469 L 801.644531 8.355469 L 801.644531 801.644531 L 8.355469 801.644531 Z M 8.355469 8.355469 " clip-rule="nonzero"/></clipPath><clipPath id="9891f45864"><path d="M 405 8.355469 C 185.941406 8.355469 8.355469 185.941406 8.355469 405 C 8.355469 624.058594 185.941406 801.644531 405 801.644531 C 624.058594 801.644531 801.644531 624.058594 801.644531 405 C 801.644531 185.941406 624.058594 8.355469 405 8.355469 " clip-rule="nonzero"/></clipPath><clipPath id="97b6f849fe"><path d="M 174.652344 174.652344 L 635.964844 174.652344 L 635.964844 635.964844 L 174.652344 635.964844 Z M 174.652344 174.652344 " clip-rule="nonzero"/></clipPath></defs><g clip-path="url(#a4a00f4c41)"><g clip-path="url(#9891f45864)"><path fill="#32508e" d="M 8.355469 8.355469 L 801.644531 8.355469 L 801.644531 801.644531 L 8.355469 801.644531 Z M 8.355469 8.355469 " fill-opacity="1" fill-rule="nonzero"/></g></g><path fill="#ffe47e" d="M 185.171875 185.171875 L 405.253906 185.171875 L 405.253906 405.253906 L 185.171875 405.253906 Z M 185.171875 185.171875 " fill-opacity="1" fill-rule="evenodd"/><path fill="#7e9eff" d="M 405.253906 185.171875 L 625.332031 185.171875 L 625.332031 405.253906 L 405.253906 405.253906 Z M 405.253906 185.171875 " fill-opacity="1" fill-rule="evenodd"/><path fill="#ff847e" d="M 405.253906 405.25 L 625.332031 405.25 L 625.332031 625.332031 L 405.253906 625.332031 Z M 405.253906 405.25 " fill-opacity="1" fill-rule="evenodd"/><path fill="#7eff86" d="M 185.171875 405.25 L 405.253906 405.25 L 405.253906 625.332031 L 185.171875 625.332031 Z M 185.171875 405.25 " fill-opacity="1" fill-rule="evenodd"/><g clip-path="url(#97b6f849fe)"><path fill="#232323" d="M 174.609375 185.171875 L 174.609375 625.332031 C 174.609375 631.164062 179.339844 635.894531 185.171875 635.894531 L 625.332031 635.894531 C 628.226562 635.894531 630.847656 634.730469 632.753906 632.84375 L 633.191406 632.386719 L 633.601562 631.902344 L 634.230469 631.023438 L 634.648438 630.3125 L 634.960938 629.679688 C 635.144531 629.269531 635.304688 628.847656 635.4375 628.414062 L 635.4375 628.410156 C 635.644531 627.730469 635.785156 627.019531 635.851562 626.289062 L 635.894531 625.332031 L 635.894531 185.171875 C 635.894531 179.339844 631.164062 174.609375 625.332031 174.609375 L 185.171875 174.609375 C 179.339844 174.609375 174.609375 179.339844 174.609375 185.171875 Z M 394.691406 614.769531 L 394.691406 415.816406 L 195.734375 415.816406 L 195.734375 614.769531 Z M 505.824219 614.769531 L 415.816406 614.769531 L 415.816406 415.816406 C 415.816406 415.816406 614.769531 415.816406 614.769531 415.816406 C 614.769531 415.816406 614.769531 614.769531 614.769531 614.769531 Z M 290.332031 500.355469 L 265.941406 475.964844 C 261.820312 471.84375 255.125 471.84375 251.003906 475.964844 C 246.882812 480.085938 246.882812 486.78125 251.003906 490.902344 L 275.394531 515.292969 L 251.003906 539.679688 C 246.882812 543.804688 246.882812 550.496094 251.003906 554.621094 C 255.125 558.742188 261.820312 558.742188 265.941406 554.621094 L 290.332031 530.230469 L 314.722656 554.621094 C 318.84375 558.742188 325.539062 558.742188 329.660156 554.621094 C 333.78125 550.496094 333.78125 543.804688 329.660156 539.679688 L 305.269531 515.292969 L 329.660156 490.902344 C 333.78125 486.78125 333.78125 480.085938 329.660156 475.964844 C 325.539062 471.84375 318.84375 471.84375 314.722656 475.964844 Z M 479.019531 548.382812 L 553.75 548.382812 C 559.578125 548.382812 564.3125 543.648438 564.3125 537.820312 C 564.3125 531.988281 559.578125 527.257812 553.75 527.257812 L 479.019531 527.257812 C 473.191406 527.257812 468.457031 531.988281 468.457031 537.820312 C 468.457031 543.648438 473.191406 548.382812 479.019531 548.382812 Z M 476.835938 503.328125 L 551.5625 503.328125 C 557.390625 503.328125 562.125 498.59375 562.125 492.765625 C 562.125 486.933594 557.390625 482.203125 551.5625 482.203125 L 476.835938 482.203125 C 471.003906 482.203125 466.273438 486.933594 466.273438 492.765625 C 466.273438 498.59375 471.003906 503.328125 476.835938 503.328125 Z M 195.734375 195.734375 L 195.734375 394.691406 L 394.691406 394.691406 L 394.691406 195.734375 Z M 415.816406 195.734375 L 614.769531 195.734375 L 614.769531 394.691406 L 415.816406 394.691406 Z M 279.769531 284.652344 L 245.277344 284.652344 C 239.449219 284.652344 234.714844 289.382812 234.714844 295.214844 C 234.714844 301.042969 239.449219 305.777344 245.277344 305.777344 L 279.769531 305.777344 L 279.769531 340.269531 C 279.769531 346.097656 284.503906 350.832031 290.332031 350.832031 C 296.160156 350.832031 300.894531 346.097656 300.894531 340.269531 L 300.894531 305.777344 L 335.386719 305.777344 C 341.214844 305.777344 345.949219 301.042969 345.949219 295.214844 C 345.949219 289.382812 341.214844 284.652344 335.386719 284.652344 L 300.894531 284.652344 L 300.894531 250.160156 C 300.894531 244.328125 296.160156 239.59375 290.332031 239.59375 C 284.503906 239.59375 279.769531 244.328125 279.769531 250.160156 Z M 547.152344 312.09375 C 538.882812 312.09375 532.171875 318.804688 532.171875 327.070312 C 532.171875 335.339844 538.882812 342.050781 547.152344 342.050781 C 555.417969 342.050781 562.128906 335.339844 562.128906 327.070312 C 562.128906 318.804688 555.417969 312.09375 547.152344 312.09375 Z M 539.679688 255.886719 L 475.964844 319.601562 C 471.84375 323.726562 471.84375 330.417969 475.964844 334.539062 C 480.085938 338.664062 486.78125 338.664062 490.902344 334.539062 L 554.621094 270.824219 C 558.742188 266.699219 558.742188 260.007812 554.621094 255.886719 C 550.496094 251.761719 543.804688 251.761719 539.679688 255.886719 Z M 483.433594 248.375 C 475.167969 248.375 468.457031 255.085938 468.457031 263.355469 C 468.457031 271.621094 475.167969 278.332031 483.433594 278.332031 C 491.699219 278.332031 498.410156 271.621094 498.410156 263.355469 C 498.410156 255.085938 491.699219 248.375 483.433594 248.375 Z M 483.433594 248.375 " fill-opacity="1" fill-rule="evenodd"/></g></svg>