<svg xmlns="http://www.w3.org/2000/svg" xmlns:xlink="http://www.w3.org/1999/xlink" width="500" zoomAndPan="magnify" viewBox="0 0 375 374.999991" height="500" preserveAspectRatio="xMidYMid meet" version="1.0"><defs><clipPath id="2ff22f4e3e"><path d="M 30.058594 30.058594 L 344.941406 30.058594 L 344.941406 344.941406 L 30.058594 344.941406 Z M 30.058594 30.058594 " clip-rule="nonzero"/></clipPath><clipPath id="9a4a2eb2b0"><path d="M 187.5 30.058594 C 100.546875 30.058594 30.058594 100.546875 30.058594 187.5 C 30.058594 274.453125 100.546875 344.941406 187.5 344.941406 C 274.453125 344.941406 344.941406 274.453125 344.941406 187.5 C 344.941406 100.546875 274.453125 30.058594 187.5 30.058594 " clip-rule="nonzero"/></clipPath><clipPath id="658881979a"><path d="M 66 135.464844 L 308 135.464844 L 308 239.714844 L 66 239.714844 Z M 66 135.464844 " clip-rule="nonzero"/></clipPath></defs><g clip-path="url(#2ff22f4e3e)"><g clip-path="url(#9a4a2eb2b0)"><path fill="#32508e" d="M 30.058594 30.058594 L 344.941406 30.058594 L 344.941406 344.941406 L 30.058594 344.941406 Z M 30.058594 30.058594 " fill-opacity="1" fill-rule="nonzero"/></g></g><g clip-path="url(#658881979a)"><path fill="#ffffff" d="M 285.132812 136.417969 C 280.460938 137.808594 277.582031 141.722656 278.609375 145.328125 C 279.636719 149.035156 283.644531 150.425781 287.191406 148.261719 C 290.21875 146.40625 292.890625 147.335938 292.222656 150.0625 C 291.453125 153.050781 286.160156 156.652344 279.019531 159.023438 C 273.0625 160.980469 271.058594 164.941406 273.78125 169.214844 C 275.167969 171.328125 277.53125 171.945312 287.910156 172.71875 C 303.886719 173.953125 303.371094 173.953125 305.582031 171.738281 C 309.691406 167.621094 306.09375 162.164062 299.210938 162.164062 L 297.464844 162.164062 L 299.3125 160 C 303.113281 155.574219 304.707031 149.394531 303.21875 144.863281 C 302.34375 142.1875 298.851562 138.582031 295.769531 137.140625 C 293.097656 135.851562 288.0625 135.542969 285.132812 136.417969 Z M 98.710938 150.664062 C 92.785156 150.96875 84.511719 151.941406 81.242188 152.660156 C 74.550781 154.195312 73.53125 156.855469 70.621094 180.25 C 65.921875 218.382812 65.207031 228.566406 66.992188 232.457031 C 68.21875 235.171875 70.925781 237.523438 74.296875 238.652344 C 76.59375 239.46875 78.636719 239.625 88.085938 239.625 L 99.167969 239.625 L 100.699219 238.140625 C 102.640625 236.296875 103.050781 234.351562 102.078125 231.996094 C 100.855469 229.078125 99.167969 228.617188 89.667969 228.566406 C 85.226562 228.566406 80.679688 228.414062 79.558594 228.210938 L 77.515625 227.800781 L 77.617188 222.476562 C 77.667969 217.359375 80.117188 194.070312 80.628906 193.199219 C 80.78125 192.992188 83.234375 192.789062 86.09375 192.789062 C 95.746094 192.789062 100.648438 191.40625 102.488281 188.234375 C 103.40625 186.648438 103.40625 186.339844 102.742188 184.394531 C 102.234375 182.859375 101.519531 182.039062 100.140625 181.273438 C 98.402344 180.351562 97.941406 180.351562 94.011719 180.914062 C 91.660156 181.273438 87.933594 181.527344 85.738281 181.527344 L 81.753906 181.527344 L 82.007812 179.839844 C 82.160156 178.96875 82.722656 175.179688 83.183594 171.445312 C 83.644531 167.757812 84.203125 164.433594 84.410156 164.125 C 84.972656 163.203125 88.289062 162.691406 98.710938 162.078125 C 110.863281 161.359375 111.375 161.257812 113.109375 159.519531 C 115.664062 156.957031 114.847656 152.8125 111.476562 151.074219 C 110.046875 150.304688 106.625 150.203125 98.710938 150.664062 Z M 254.3125 166.71875 C 248.660156 168.828125 244.5 172.792969 241.160156 179.332031 C 236.125 188.960938 234.019531 199.824219 235.5625 207.496094 C 237.152344 215.117188 241.210938 221.140625 246.605469 223.816406 C 250.097656 225.515625 255.234375 225.464844 258.78125 223.613281 C 262.992188 221.398438 267.566406 216.09375 268.488281 212.234375 C 269.15625 209.351562 266.230469 205.695312 263.148438 205.695312 C 261.246094 205.695312 259.191406 207.136719 257.34375 209.761719 C 254.875 213.160156 253.234375 214.242188 251.640625 213.519531 C 248.351562 212.027344 245.835938 205.4375 246.453125 200.082031 C 247.324219 192.511719 250.921875 183.453125 254.464844 179.898438 C 256.367188 177.996094 258.011719 177.273438 258.011719 178.40625 C 258.011719 179.074219 260.785156 180.464844 262.121094 180.464844 C 263.917969 180.464844 266.179688 179.023438 267.050781 177.273438 C 268.695312 174.082031 266.742188 169.191406 263.042969 167.285156 C 260.886719 166.152344 256.625 165.894531 254.3125 166.71875 Z M 192.921875 168.367188 C 190.40625 169.652344 187.632812 172.226562 185.269531 175.523438 L 184.242188 176.964844 L 182.699219 173.976562 C 179.257812 166.976562 173.296875 166.769531 166.515625 173.464844 L 163.691406 176.191406 L 162.253906 175.007812 C 159.683594 172.742188 155.371094 173.773438 153.675781 176.964844 C 152.902344 178.40625 152.289062 188.445312 152.132812 201.625 C 151.980469 211.410156 152.082031 212.902344 152.851562 214.085938 C 154.957031 217.277344 159.015625 217.742188 161.585938 215.066406 C 162.765625 213.828125 163.023438 212.746094 164 206.363281 C 165.128906 198.589844 166.464844 193.492188 168.367188 189.734375 C 169.804688 186.953125 172.578125 183.039062 173.144531 183.039062 C 173.347656 183.039062 174.015625 186.078125 174.632812 189.785156 C 175.609375 195.859375 175.867188 196.683594 177.203125 198.074219 C 179.207031 200.082031 182.132812 200.492188 184.394531 199.050781 C 185.679688 198.230469 186.859375 196.425781 189.429688 191.175781 C 192.714844 184.480469 194.515625 181.496094 194.976562 182.011719 C 195.078125 182.164062 194.875 188.496094 194.464844 196.167969 C 193.589844 212.953125 193.746094 219.285156 194.976562 221.191406 C 196.878906 224.074219 201.246094 224.382812 203.609375 221.859375 C 204.6875 220.675781 204.839844 220.007812 204.996094 215.578125 C 205.097656 212.851562 205.457031 204.097656 205.816406 196.167969 C 206.792969 174.957031 206.074219 170.785156 200.988281 168.210938 C 198.058594 166.71875 196.160156 166.769531 192.921875 168.367188 Z M 124.546875 185.613281 C 122.59375 185.820312 120.746094 186.386719 119.921875 187.003906 C 116.789062 189.320312 116.53125 193.234375 119.359375 195.601562 C 121.105469 197.097656 122.082031 197.148438 131.839844 196.476562 C 137.285156 196.117188 137.492188 196.066406 138.878906 194.46875 C 141.652344 191.382812 140.316406 186.746094 136.363281 185.613281 C 134.253906 185.046875 129.53125 185.046875 124.546875 185.613281 Z M 125.726562 201.007812 C 121.363281 201.421875 119.511719 202.554688 118.742188 205.179688 C 118.277344 206.777344 118.332031 207.394531 119.050781 208.9375 C 120.589844 212.234375 123.777344 212.953125 131.996094 211.871094 C 136.722656 211.253906 138.726562 210.226562 139.648438 207.90625 C 140.625 205.695312 139.90625 203.121094 137.953125 201.574219 C 136.515625 200.441406 133.332031 200.339844 125.726562 201.007812 Z M 218.660156 209.246094 C 214.085938 212.128906 216.246094 219.082031 221.691406 219.082031 C 225.234375 219.082031 228.007812 215.117188 226.671875 211.925781 C 225.335938 208.578125 221.640625 207.339844 218.660156 209.246094 Z M 218.660156 209.246094 " fill-opacity="1" fill-rule="nonzero"/></g></svg>