<svg xmlns="http://www.w3.org/2000/svg" xmlns:xlink="http://www.w3.org/1999/xlink" width="500" zoomAndPan="magnify" viewBox="0 0 375 374.999991" height="500" preserveAspectRatio="xMidYMid meet" version="1.0"><defs><clipPath id="350414ba35"><path d="M 30.058594 30.058594 L 344.941406 30.058594 L 344.941406 344.941406 L 30.058594 344.941406 Z M 30.058594 30.058594 " clip-rule="nonzero"/></clipPath><clipPath id="a5d2e0a7b1"><path d="M 187.5 30.058594 C 100.546875 30.058594 30.058594 100.546875 30.058594 187.5 C 30.058594 274.453125 100.546875 344.941406 187.5 344.941406 C 274.453125 344.941406 344.941406 274.453125 344.941406 187.5 C 344.941406 100.546875 274.453125 30.058594 187.5 30.058594 " clip-rule="nonzero"/></clipPath><clipPath id="37cb9e97b1"><path d="M 116.769531 90 L 227 90 L 227 275 L 116.769531 275 Z M 116.769531 90 " clip-rule="nonzero"/></clipPath><clipPath id="019cf90bde"><path d="M 129.597656 102.042969 L 258.449219 102.042969 L 258.449219 287.378906 L 129.597656 287.378906 Z M 129.597656 102.042969 " clip-rule="nonzero"/></clipPath></defs><g clip-path="url(#350414ba35)"><g clip-path="url(#a5d2e0a7b1)"><path fill="#32508e" d="M 30.058594 30.058594 L 344.941406 30.058594 L 344.941406 344.941406 L 30.058594 344.941406 Z M 30.058594 30.058594 " fill-opacity="1" fill-rule="nonzero"/></g></g><g clip-path="url(#37cb9e97b1)"><path fill="#f46a61" d="M 215.902344 153.453125 C 207.660156 139.085938 196.695312 126.066406 191.234375 110.234375 C 189.871094 106.277344 188.867188 102.210938 188.417969 98.042969 C 188.085938 94.957031 189 87.882812 184.3125 91.769531 C 178.207031 96.824219 176.394531 104.851562 178.140625 112.417969 C 180.039062 120.632812 185.511719 127.480469 190.324219 134.191406 C 195.5 141.40625 200.144531 148.78125 203.792969 156.890625 C 207.492188 165.105469 210.351562 173.714844 212.265625 182.515625 C 214.097656 190.910156 215.242188 197.835938 207.773438 203.664062 C 201.695312 208.410156 194.03125 210.609375 186.832031 213.015625 C 181.113281 214.929688 175.441406 216.933594 169.898438 219.257812 C 171.539062 221.855469 173.21875 224.425781 174.90625 226.972656 C 176.160156 228.863281 177.457031 230.730469 178.765625 232.59375 C 193.984375 227.464844 211.589844 222.300781 220.785156 207.980469 C 231.667969 191.027344 225.121094 169.523438 215.902344 153.453125 Z M 168.125 236.296875 C 168.132812 236.304688 168.140625 236.3125 168.144531 236.320312 C 155.429688 241.0625 143.140625 246.996094 133.710938 257.070312 C 130.875 260.101562 128.367188 263.453125 126.339844 267.078125 C 125.164062 269.183594 124.066406 275 121.019531 274.898438 C 117.386719 274.773438 116.84375 269.558594 117.027344 266.914062 C 117.308594 262.832031 119.082031 258.910156 121.148438 255.4375 C 129.742188 241.03125 146.089844 230.988281 160.660156 223.523438 L 159.238281 224.269531 C 161.304688 227.285156 163.46875 230.195312 165.601562 232.992188 C 166.429688 234.078125 167.273438 235.179688 168.125 236.296875 " fill-opacity="1" fill-rule="nonzero"/></g><g clip-path="url(#019cf90bde)"><path fill="#86aadf" d="M 135.070312 251.347656 C 134.320312 251.085938 133.660156 250.980469 133.070312 251.09375 C 133.144531 250.75 132.703125 250.40625 132.375 250.710938 C 130.5625 252.394531 128.707031 255.074219 131.078125 257.183594 C 132.8125 258.71875 135.660156 259.53125 137.753906 260.496094 C 140.222656 261.632812 142.695312 262.761719 145.179688 263.859375 C 148.871094 265.488281 152.605469 267.0625 156.382812 268.554688 C 157.402344 266.175781 158.390625 263.785156 159.347656 261.382812 C 153.460938 259.789062 147.886719 257.480469 142.390625 254.839844 C 139.988281 253.6875 137.585938 252.234375 135.070312 251.347656 Z M 154.628906 240.222656 C 152.222656 238.949219 149.3125 237.007812 146.515625 236.804688 C 143.082031 236.554688 141.011719 240.199219 143.097656 242.230469 C 142.878906 242.382812 142.832031 242.78125 143.105469 242.964844 C 149.164062 247.050781 156.050781 249.582031 162.769531 252.359375 C 163.59375 250.085938 164.386719 247.804688 165.148438 245.511719 C 164.695312 245.304688 164.238281 245.097656 163.78125 244.886719 C 160.671875 243.441406 157.660156 241.828125 154.628906 240.222656 Z M 208.941406 128.714844 C 204.671875 126.25 200.417969 123.703125 196.074219 121.339844 C 198.09375 125.222656 200.359375 128.984375 202.714844 132.691406 C 204.902344 133.855469 207.082031 135.039062 209.242188 136.25 C 209.988281 134.234375 210.820312 132.253906 211.695312 130.289062 C 210.777344 129.769531 209.859375 129.242188 208.941406 128.714844 Z M 192.253906 112.992188 C 199.550781 116.429688 206.980469 119.660156 214.46875 122.601562 C 215.535156 120.414062 216.574219 118.210938 217.519531 115.980469 C 215.1875 115.003906 212.855469 114.023438 210.511719 113.066406 C 205.488281 111.019531 200.441406 109.042969 195.453125 106.902344 C 193.421875 106.03125 191.429688 105.027344 189.441406 104.027344 C 189.925781 106.125 190.53125 108.195312 191.234375 110.234375 C 191.554688 111.164062 191.894531 112.085938 192.253906 112.992188 Z M 186.832031 213.015625 C 188.792969 212.359375 190.785156 211.71875 192.773438 211.039062 C 188.832031 209.65625 184.894531 208.398438 181.101562 206.601562 C 179.164062 205.683594 177.195312 204.828125 175.210938 204.003906 C 174.132812 206.132812 173.007812 208.230469 171.761719 210.242188 C 175.308594 211.632812 178.816406 213.101562 182.339844 214.546875 C 183.832031 214.027344 185.332031 213.519531 186.832031 213.015625 Z M 197.246094 195.933594 C 192.328125 194.046875 187.390625 192.175781 182.472656 190.257812 C 181.25 192.328125 180.070312 194.421875 178.957031 196.550781 C 180.910156 197.40625 182.863281 198.257812 184.824219 199.089844 C 189.609375 201.125 194.394531 203.183594 199.246094 205.054688 C 200.65625 205.601562 202.097656 206.046875 203.550781 206.449219 C 205.019531 205.625 206.4375 204.707031 207.773438 203.664062 C 208.878906 202.800781 209.789062 201.917969 210.542969 201.003906 C 209.019531 200.140625 207.183594 199.640625 205.582031 199.050781 C 202.800781 198.023438 200.015625 197 197.246094 195.933594 Z M 210.148438 184.175781 C 204.847656 182.183594 199.527344 180.238281 194.1875 178.34375 C 193 177.921875 191.808594 177.511719 190.621094 177.101562 C 189.300781 179.214844 187.96875 181.320312 186.648438 183.429688 C 191.933594 185.441406 197.175781 187.582031 202.4375 189.671875 C 204.859375 190.632812 207.296875 191.566406 209.746094 192.453125 C 210.964844 192.894531 212.234375 193.425781 213.519531 193.910156 C 213.820312 191.191406 213.433594 188.277344 212.816406 185.148438 C 211.921875 184.824219 211.027344 184.507812 210.148438 184.175781 Z M 195.183594 169.519531 C 197.839844 170.257812 200.496094 171.007812 203.121094 171.863281 C 205.550781 172.652344 207.898438 173.722656 210.28125 174.65625 C 209.460938 171.78125 208.546875 168.929688 207.53125 166.113281 C 204.417969 165.378906 201.273438 164.765625 198.179688 163.972656 C 197.226562 165.847656 196.226562 167.695312 195.183594 169.519531 Z M 178.773438 232.589844 C 178.769531 232.589844 178.765625 232.59375 178.765625 232.59375 C 177.457031 230.730469 176.160156 228.863281 174.90625 226.972656 C 174.6875 226.640625 174.46875 226.304688 174.25 225.976562 C 170.511719 220.394531 166.929688 214.710938 163.714844 208.816406 C 159.453125 201.007812 155.335938 191.824219 159.570312 183.09375 C 165.21875 171.433594 180.296875 167.570312 191.449219 162.925781 C 195.671875 161.164062 199.90625 159.429688 204.140625 157.683594 C 204.023438 157.421875 203.914062 157.152344 203.792969 156.890625 C 202.15625 153.25 200.316406 149.761719 198.320312 146.367188 C 198.199219 146.402344 198.078125 146.4375 197.960938 146.472656 C 188.472656 149.371094 178.84375 152.578125 170.105469 157.34375 C 154.816406 165.683594 144.136719 179.839844 147.246094 197.921875 C 148.929688 207.691406 153.613281 216.226562 159.191406 224.28125 C 159.683594 224.027344 160.171875 223.777344 160.660156 223.523438 L 159.238281 224.269531 C 161.304688 227.285156 163.46875 230.195312 165.601562 232.992188 C 166.429688 234.078125 167.273438 235.179688 168.125 236.296875 C 168.132812 236.304688 168.140625 236.3125 168.144531 236.320312 C 168.144531 236.320312 168.140625 236.324219 168.136719 236.324219 C 170.390625 239.269531 172.617188 242.199219 174.703125 245.15625 C 179.847656 252.441406 184.605469 260.316406 186.777344 269.050781 C 187.84375 273.328125 188.230469 277.777344 187.742188 282.167969 C 187.628906 283.164062 186.125 287.417969 188.203125 287.375 C 189.566406 287.347656 191.371094 283.734375 191.925781 282.742188 C 200.914062 266.605469 189.734375 248.242188 180.550781 235.140625 C 179.957031 234.292969 179.367188 233.441406 178.773438 232.589844 Z M 257.898438 115.539062 C 254.121094 133.242188 236.148438 143.933594 220.886719 150.617188 C 219.125 151.386719 217.355469 152.144531 215.582031 152.902344 C 213.679688 149.621094 211.644531 146.410156 209.566406 143.21875 C 215.605469 141.539062 221.585938 139.679688 227.136719 136.753906 C 234.722656 132.753906 241.21875 126.785156 245.964844 119.652344 C 248.339844 116.082031 250.28125 112.222656 251.726562 108.1875 C 252.308594 106.550781 252.460938 104.714844 253.71875 103.597656 C 253.757812 103.566406 255.246094 102.523438 255.503906 102.4375 C 256.238281 102.1875 257.117188 102.261719 257.398438 103.191406 C 258.613281 107.199219 258.769531 111.449219 257.898438 115.539062 " fill-opacity="1" fill-rule="nonzero"/></g><path fill="#ffffff" d="M 122.933594 258.90625 C 120.554688 260.710938 119.640625 264.234375 119.511719 267.101562 C 119.445312 268.597656 119.40625 272.789062 121.917969 272.214844 C 122.199219 272.152344 122.292969 271.769531 122.089844 271.578125 C 120.375 269.957031 120.820312 267.148438 121.292969 265.039062 C 121.75 263.003906 122.835938 261.28125 123.488281 259.328125 C 123.582031 259.039062 123.199219 258.707031 122.933594 258.90625 Z M 181.328125 247.730469 C 181.046875 247.371094 180.460938 247.835938 180.699219 248.214844 C 183.574219 252.839844 185.953125 257.734375 187.402344 262.992188 C 188.128906 265.621094 188.667969 268.3125 188.964844 271.023438 C 189.238281 273.515625 189.1875 276.027344 189.722656 278.484375 C 189.785156 278.785156 190.222656 278.757812 190.300781 278.484375 C 191.777344 273.476562 190.253906 267.128906 188.757812 262.273438 C 187.140625 257.027344 184.710938 252.066406 181.328125 247.730469 Z M 216.425781 183.71875 C 216.574219 187.335938 217.148438 190.851562 216.742188 194.480469 C 216.292969 198.457031 214.914062 202.222656 212.1875 205.203125 C 209.585938 208.046875 206.207031 210.203125 202.859375 212.058594 C 199.390625 213.980469 195.605469 215.125 192.097656 216.921875 C 191.820312 217.0625 191.953125 217.511719 192.257812 217.503906 C 196.355469 217.390625 200.585938 215.488281 204.164062 213.605469 C 207.875 211.652344 211.605469 209.148438 214.308594 205.902344 C 219.238281 199.984375 219.949219 190.691406 217.308594 183.601562 C 217.144531 183.15625 216.40625 183.179688 216.425781 183.71875 Z M 253.652344 107.136719 C 252.738281 109.570312 252 112.039062 250.863281 114.386719 C 249.882812 116.402344 248.421875 118.222656 247.691406 120.347656 C 247.570312 120.691406 248.023438 121.058594 248.332031 120.839844 C 250.375 119.371094 251.550781 116.847656 252.550781 114.605469 C 253.585938 112.277344 254.386719 109.808594 254.535156 107.257812 C 254.566406 106.71875 253.820312 106.691406 253.652344 107.136719 Z M 183.414062 117.265625 C 180.71875 114.738281 180.304688 109.796875 180.519531 106.320312 C 180.777344 102.203125 182.117188 98.484375 184.507812 95.140625 C 184.882812 94.621094 185.710938 95.074219 185.382812 95.648438 C 183.484375 98.941406 182.433594 102.828125 182.390625 106.625 C 182.371094 108.582031 182.589844 110.519531 183.050781 112.421875 C 183.414062 113.9375 184 115.402344 184.160156 116.957031 C 184.203125 117.355469 183.667969 117.5 183.414062 117.265625 " fill-opacity="1" fill-rule="nonzero"/><path fill="#f9ae8f" d="M 183.097656 269.921875 C 180.382812 268.773438 177.65625 267.652344 174.921875 266.554688 C 169.933594 264.546875 165.019531 262.882812 159.820312 261.515625 C 159.660156 261.472656 159.503906 261.425781 159.347656 261.382812 C 158.390625 263.785156 157.402344 266.175781 156.382812 268.554688 C 162.671875 271.039062 169.066406 273.300781 175.507812 275.230469 C 177.949219 275.960938 180.386719 276.710938 182.835938 277.417969 C 184.339844 277.855469 186.265625 278.71875 187.945312 278.558594 C 187.957031 276.25 187.742188 273.941406 187.332031 271.667969 C 185.960938 271 184.453125 270.496094 183.097656 269.921875 Z M 165.148438 245.511719 C 164.386719 247.804688 163.59375 250.085938 162.769531 252.359375 C 164.335938 253.007812 165.890625 253.664062 167.425781 254.363281 C 171.824219 256.359375 176.246094 258.316406 180.628906 260.351562 C 182.144531 261.058594 183.417969 262.085938 184.804688 262.941406 C 183.195312 258.84375 181.089844 254.941406 178.742188 251.199219 C 174.167969 249.40625 169.621094 247.542969 165.148438 245.511719 Z M 226.195312 137.121094 C 224.011719 136.207031 221.792969 135.460938 219.640625 134.453125 C 216.933594 133.191406 214.300781 131.761719 211.695312 130.289062 C 210.820312 132.253906 209.988281 134.234375 209.242188 136.25 C 211.734375 137.644531 214.214844 139.070312 216.679688 140.519531 C 219.0625 141.921875 222.78125 145.265625 225.734375 143.824219 C 227.171875 143.117188 228.800781 140.5625 228.207031 138.84375 C 227.875 137.878906 227.035156 137.476562 226.195312 137.121094 Z M 242.121094 126.046875 C 242.046875 125.398438 241.53125 125.070312 241.035156 125.074219 C 235.722656 123.550781 230.570312 121.1875 225.421875 119.191406 C 222.769531 118.164062 220.144531 117.074219 217.519531 115.980469 C 216.574219 118.210938 215.535156 120.414062 214.46875 122.601562 C 215.375 122.957031 216.28125 123.316406 217.1875 123.664062 C 220.265625 124.839844 223.40625 125.84375 226.464844 127.054688 C 228.855469 128.003906 231.136719 129.203125 233.523438 130.144531 C 236.871094 131.46875 242.691406 130.988281 242.121094 126.046875 Z M 171.761719 210.242188 C 173.007812 208.230469 174.132812 206.132812 175.210938 204.003906 C 168.4375 201.207031 161.429688 198.871094 154.570312 196.367188 C 154.175781 195.722656 153.09375 195.5625 152.589844 196.347656 C 148.601562 202.527344 160.964844 206.355469 164.769531 207.65625 C 167.128906 208.460938 169.453125 209.335938 171.761719 210.242188 Z M 155.0625 186.945312 C 155.355469 186.984375 155.589844 186.882812 155.761719 186.707031 C 160.53125 187.972656 165 190.34375 169.480469 192.34375 C 172.640625 193.75 175.792969 195.160156 178.957031 196.550781 C 180.070312 194.421875 181.25 192.328125 182.472656 190.257812 C 176.980469 188.117188 171.507812 185.925781 166.105469 183.589844 C 163.363281 182.40625 160.710938 181.035156 157.980469 179.835938 C 156.597656 179.234375 154.988281 178.714844 153.617188 179.617188 C 150.984375 181.347656 151.871094 186.527344 155.0625 186.945312 Z M 168.113281 168.839844 C 165.945312 168.074219 163.839844 167.699219 161.792969 168.90625 C 161.3125 169.191406 161.328125 169.699219 161.601562 170.023438 C 161.050781 170.914062 160.878906 172.03125 161.3125 173.179688 C 162.664062 176.777344 168.007812 177.222656 171.125 178.132812 C 176.390625 179.667969 181.539062 181.488281 186.648438 183.429688 C 187.96875 181.320312 189.300781 179.214844 190.621094 177.101562 C 185.882812 175.472656 181.128906 173.890625 176.4375 172.144531 C 173.640625 171.101562 170.921875 169.835938 168.113281 168.839844 Z M 197.480469 163.796875 C 197.710938 163.855469 197.945312 163.914062 198.179688 163.972656 C 197.226562 165.847656 196.226562 167.695312 195.183594 169.519531 C 193.121094 168.949219 191.054688 168.382812 189 167.789062 C 184.429688 166.460938 179.878906 164.925781 175.75 162.523438 C 174.671875 161.898438 173.417969 161.347656 173.332031 159.9375 C 173.257812 158.636719 174.199219 157.453125 175.117188 156.667969 C 175.390625 156.4375 175.730469 156.578125 175.855469 156.820312 C 178.164062 156.414062 181.277344 158.449219 183.207031 159.171875 C 187.890625 160.921875 192.648438 162.507812 197.480469 163.796875 " fill-opacity="1" fill-rule="nonzero"/><path fill="#2e2e30" d="M 158.773438 260.59375 C 157.871094 261.78125 157.433594 263.496094 156.90625 264.871094 C 156.296875 266.453125 155.605469 268.011719 155.730469 269.734375 C 155.75 269.941406 155.992188 270.058594 156.152344 269.90625 C 157.425781 268.6875 157.976562 266.953125 158.597656 265.339844 C 159.0625 264.132812 160.292969 262.03125 159.917969 260.746094 C 159.757812 260.183594 159.085938 260.179688 158.773438 260.59375 Z M 164.90625 245.234375 C 163.722656 247.449219 162.886719 249.664062 162.367188 252.125 C 162.292969 252.472656 162.722656 252.640625 162.925781 252.359375 C 164.386719 250.316406 165.511719 248.214844 166.476562 245.894531 C 166.847656 244.996094 165.359375 244.390625 164.90625 245.234375 Z M 171.699219 211.992188 C 174.046875 209.640625 175.128906 206.371094 176.023438 203.234375 C 176.25 202.4375 175.058594 202.125 174.796875 202.894531 C 173.769531 205.910156 172.152344 208.683594 171.246094 211.726562 C 171.167969 211.988281 171.507812 212.179688 171.699219 211.992188 Z M 182.269531 190.039062 C 181.316406 191.058594 180.734375 192.421875 180.105469 193.660156 C 179.523438 194.8125 178.945312 195.945312 178.84375 197.25 C 178.8125 197.636719 179.304688 197.761719 179.550781 197.546875 C 180.5625 196.660156 181.113281 195.460938 181.699219 194.273438 C 182.269531 193.105469 182.988281 191.882812 183.21875 190.589844 C 183.3125 190.070312 182.6875 189.589844 182.269531 190.039062 Z M 189.765625 177.445312 C 188.621094 180.019531 187.230469 182.476562 186.472656 185.199219 C 186.40625 185.429688 186.730469 185.648438 186.898438 185.445312 C 188.746094 183.226562 189.75 180.542969 190.757812 177.863281 C 190.972656 177.292969 190.015625 176.882812 189.765625 177.445312 Z M 198.113281 163.644531 C 196.980469 165.644531 195.621094 167.601562 195.152344 169.878906 C 195.089844 170.183594 195.453125 170.429688 195.691406 170.191406 C 197.335938 168.554688 198.222656 166.359375 199.269531 164.320312 C 199.664062 163.558594 198.542969 162.890625 198.113281 163.644531 Z M 211.195312 134.042969 C 211.621094 132.75 212.179688 131.390625 211.96875 130.015625 C 211.9375 129.816406 211.667969 129.785156 211.542969 129.902344 C 210.582031 130.792969 210.1875 132.152344 209.746094 133.351562 C 209.214844 134.777344 208.78125 136.050781 208.773438 137.578125 C 208.769531 137.851562 209.175781 138.070312 209.367188 137.824219 C 210.28125 136.640625 210.726562 135.464844 211.195312 134.042969 Z M 214.707031 124.476562 C 215.503906 123.417969 215.847656 122.148438 216.3125 120.921875 C 216.871094 119.453125 217.484375 117.992188 218.140625 116.5625 C 218.421875 115.953125 217.613281 115.460938 217.230469 116.03125 C 215.726562 118.285156 213.707031 121.4375 213.933594 124.265625 C 213.96875 124.695312 214.457031 124.804688 214.707031 124.476562 Z M 129.0625 252.988281 C 128.390625 254.476562 128.519531 256.34375 129.621094 257.601562 C 130.542969 258.65625 132.988281 260 134.285156 259.03125 C 134.445312 258.914062 134.542969 258.699219 134.421875 258.511719 C 133.9375 257.75 133.210938 257.761719 132.398438 257.492188 C 130.589844 256.894531 129.597656 255.136719 130.617188 253.367188 C 131.34375 252.109375 132.863281 251.527344 134.257812 251.546875 C 135.726562 251.570312 136.789062 252.386719 138.121094 252.792969 C 138.652344 252.953125 138.890625 252.316406 138.609375 251.957031 C 136.3125 248.996094 130.613281 249.578125 129.0625 252.988281 Z M 147.441406 237.878906 C 150.40625 238.433594 152.886719 240.453125 155.710938 241.335938 C 156.105469 241.457031 156.414062 240.921875 156.113281 240.640625 C 154.171875 238.8125 151.085938 237.613281 148.535156 236.84375 C 146.601562 236.261719 144.605469 236.316406 143.1875 237.96875 C 140.003906 241.683594 144.496094 245.855469 148.042969 246.757812 C 148.8125 246.953125 149.28125 245.886719 148.585938 245.472656 C 147.496094 244.828125 146.3125 244.355469 145.269531 243.625 C 144.050781 242.773438 143.460938 241.894531 143.683594 240.375 C 143.953125 238.53125 145.53125 237.523438 147.441406 237.878906 Z M 239.683594 124.8125 C 238.847656 124.945312 239.0625 126.0625 239.683594 126.300781 C 240.558594 126.636719 241.535156 126.488281 241.929688 127.46875 C 242.429688 128.710938 241.75 130.015625 240.535156 130.433594 C 239.621094 130.746094 238.589844 130.851562 237.625 130.789062 C 236.660156 130.722656 235.941406 130.488281 234.992188 130.742188 C 234.832031 130.789062 234.746094 130.984375 234.835938 131.128906 C 236.410156 133.648438 242.15625 132.808594 243.398438 130.273438 C 244.792969 127.4375 242.9375 124.304688 239.683594 124.8125 Z M 225.410156 136.992188 C 224.753906 137.070312 224.613281 137.90625 225.253906 138.144531 C 225.914062 138.386719 226.570312 138.636719 227.222656 138.902344 C 228.925781 140.882812 228.871094 142.378906 227.058594 143.398438 C 225.742188 144.144531 224.058594 143.882812 222.695312 143.515625 C 220.683594 142.980469 219.140625 141.769531 217.347656 140.796875 C 217.039062 140.628906 216.644531 140.976562 216.847656 141.296875 C 218.933594 144.578125 225.011719 146.878906 228.402344 144.355469 C 231.785156 141.835938 229.519531 136.527344 225.410156 136.992188 Z M 183.226562 166.324219 C 181.597656 165.441406 179.933594 164.511719 178.339844 163.554688 C 177.695312 163.164062 175.90625 162.359375 175.558594 161.648438 C 174.117188 158.71875 178.703125 158.886719 179.820312 159.058594 C 182.851562 159.523438 186.136719 162.332031 189.210938 161.394531 C 189.472656 161.316406 189.550781 160.929688 189.289062 160.789062 C 187.941406 160.070312 186.421875 159.808594 184.996094 159.246094 C 183.652344 158.710938 182.339844 158.070312 180.921875 157.734375 C 178.808594 157.238281 176.203125 157.191406 174.519531 158.792969 C 170.261719 162.839844 180.46875 166.164062 183.046875 166.757812 C 183.296875 166.816406 183.472656 166.457031 183.226562 166.324219 Z M 164.644531 176.664062 C 164.933594 176.714844 165.316406 176.390625 165.085938 176.089844 C 164.597656 175.457031 163.949219 175.0625 163.410156 174.476562 C 162.566406 173.546875 162.363281 173.042969 162.636719 171.8125 C 162.992188 170.214844 164.042969 169.859375 165.691406 169.859375 C 168.328125 169.859375 170.847656 171.167969 173.445312 171.039062 C 173.726562 171.023438 173.972656 170.625 173.703125 170.414062 C 171.839844 168.960938 169.023438 168.613281 166.726562 168.355469 C 165.007812 168.164062 163.082031 168.316406 161.785156 169.605469 C 159.332031 172.050781 161.644531 176.113281 164.644531 176.664062 Z M 153.46875 187.03125 C 154.773438 188.160156 157.054688 189.207031 158.769531 188.617188 C 159.066406 188.511719 159.285156 188.058594 158.976562 187.820312 C 156.972656 186.269531 153.320312 186.625 152.726562 183.414062 C 152.273438 180.964844 154.554688 180.007812 156.554688 180.503906 C 157.953125 180.847656 159.101562 181.464844 160.570312 181.421875 C 160.921875 181.410156 161.023438 180.871094 160.65625 180.789062 C 158.585938 180.335938 156.453125 178.832031 154.265625 179.324219 C 152.699219 179.675781 151.675781 181.089844 151.53125 182.644531 C 151.371094 184.335938 152.207031 185.941406 153.46875 187.03125 Z M 155.765625 204.730469 C 157.367188 205.746094 160.203125 207.421875 162.121094 206.777344 C 162.367188 206.691406 162.542969 206.382812 162.378906 206.140625 C 161.773438 205.246094 160.855469 204.992188 159.886719 204.597656 C 158.453125 204.011719 157.042969 203.40625 155.792969 202.476562 C 154.671875 201.644531 152.46875 199.777344 152.496094 198.207031 C 152.542969 195.335938 156.988281 197.589844 158.054688 197.902344 C 158.445312 198.015625 158.636719 197.480469 158.320312 197.265625 C 156.894531 196.292969 153.988281 194.847656 152.222656 195.613281 C 150.464844 196.375 151.121094 198.527344 151.65625 199.863281 C 152.492188 201.949219 153.875 203.53125 155.765625 204.730469 Z M 165.320312 231.328125 C 163.375 228.667969 161.511719 225.84375 159.167969 223.511719 C 158.777344 223.125 158.242188 223.613281 158.449219 224.066406 C 159.929688 227.320312 162.195312 230.234375 164.289062 233.113281 C 166.03125 235.507812 167.675781 238.300781 170.085938 240.074219 C 170.425781 240.320312 170.957031 239.90625 170.808594 239.519531 C 169.667969 236.484375 167.214844 233.921875 165.320312 231.328125 Z M 174.382812 224.308594 C 172.347656 221.394531 170.40625 218.34375 167.972656 215.738281 C 167.695312 215.441406 167.285156 215.816406 167.441406 216.148438 C 169.066406 219.648438 171.433594 222.808594 173.625 225.972656 C 175.410156 228.546875 177.078125 231.773438 179.617188 233.667969 C 179.878906 233.863281 180.257812 233.539062 180.164062 233.246094 C 179.117188 229.996094 176.332031 227.089844 174.382812 224.308594 Z M 214.789062 150.066406 C 213.378906 147.632812 211.917969 145.132812 210.078125 142.992188 C 209.726562 142.585938 209.121094 143.105469 209.359375 143.546875 C 210.75 146.144531 212.46875 148.574219 213.933594 151.136719 C 215.234375 153.414062 216.222656 156.007812 217.898438 158.03125 C 218.121094 158.300781 218.496094 158.003906 218.4375 157.714844 C 217.882812 154.996094 216.164062 152.445312 214.789062 150.066406 Z M 204.488281 156.15625 C 205.902344 158.796875 207.710938 161.769531 207.792969 164.832031 C 207.800781 165.207031 207.332031 165.265625 207.144531 165.007812 C 205.136719 162.25 203.945312 158.683594 202.351562 155.660156 C 200.804688 152.722656 199.171875 149.820312 197.882812 146.757812 C 197.664062 146.226562 198.472656 145.984375 198.753906 146.390625 C 200.890625 149.484375 202.714844 152.84375 204.488281 156.15625 " fill-opacity="1" fill-rule="nonzero"/></svg>