<svg xmlns="http://www.w3.org/2000/svg" xmlns:xlink="http://www.w3.org/1999/xlink" width="1080" zoomAndPan="magnify" viewBox="0 0 810 809.999993" height="1080" preserveAspectRatio="xMidYMid meet" version="1.0"><defs><clipPath id="f9ff988d9c"><path d="M 8.355469 8.355469 L 801.644531 8.355469 L 801.644531 801.644531 L 8.355469 801.644531 Z M 8.355469 8.355469 " clip-rule="nonzero"/></clipPath><clipPath id="2a5179772a"><path d="M 405 8.355469 C 185.941406 8.355469 8.355469 185.941406 8.355469 405 C 8.355469 624.058594 185.941406 801.644531 405 801.644531 C 624.058594 801.644531 801.644531 624.058594 801.644531 405 C 801.644531 185.941406 624.058594 8.355469 405 8.355469 " clip-rule="nonzero"/></clipPath><clipPath id="8bf7eeebae"><path d="M 143.355469 143.355469 L 666.855469 143.355469 L 666.855469 666.855469 L 143.355469 666.855469 Z M 143.355469 143.355469 " clip-rule="nonzero"/></clipPath></defs><g clip-path="url(#f9ff988d9c)"><g clip-path="url(#2a5179772a)"><path fill="#32508e" d="M 8.355469 8.355469 L 801.644531 8.355469 L 801.644531 801.644531 L 8.355469 801.644531 Z M 8.355469 8.355469 " fill-opacity="1" fill-rule="nonzero"/></g></g><path fill="#cf9e76" d="M 557.089844 160.246094 L 557.089844 177.132812 C 557.089844 181.773438 553.292969 185.574219 548.648438 185.574219 L 177.132812 185.574219 C 172.488281 185.574219 168.6875 181.773438 168.6875 177.132812 L 168.6875 160.246094 C 168.6875 155.601562 172.488281 151.800781 177.132812 151.800781 L 548.648438 151.800781 C 553.292969 151.800781 557.089844 155.601562 557.089844 160.246094 Z M 557.089844 160.246094 " fill-opacity="1" fill-rule="nonzero"/><path fill="#cf9e76" d="M 497.984375 524.160156 L 334.097656 523.316406 L 334.011719 523.316406 C 336.375 515.296875 337.558594 506.765625 337.558594 497.984375 C 337.558594 495.117188 337.390625 492.328125 337.136719 489.542969 L 438.882812 489.542969 C 438.882812 494.1875 442.679688 497.984375 447.324219 497.984375 L 464.210938 497.984375 C 468.855469 497.984375 472.65625 494.1875 472.65625 489.542969 L 472.65625 472.65625 C 472.65625 472.066406 472.570312 471.472656 472.488281 470.96875 L 475.441406 469.953125 C 480.339844 485.574219 491.316406 498.832031 506.429688 506.429688 L 506.429688 523.316406 L 498.15625 524.160156 Z M 497.984375 524.160156 " fill-opacity="1" fill-rule="nonzero"/><path fill="#ecc19c" d="M 472.65625 329.117188 L 460.75 335.109375 C 458.976562 335.953125 457.371094 336.96875 455.769531 338.066406 L 455.769531 312.226562 C 455.769531 307.585938 451.96875 303.785156 447.324219 303.785156 L 354.445312 303.785156 L 354.445312 227.792969 C 354.445312 223.148438 350.644531 219.347656 346.003906 219.347656 L 244.679688 219.347656 C 240.035156 219.347656 236.234375 223.148438 236.234375 227.792969 L 236.234375 329.117188 C 236.234375 333.757812 240.035156 337.558594 244.679688 337.558594 L 337.558594 337.558594 L 337.558594 413.550781 C 337.558594 418.195312 341.359375 421.996094 346.003906 421.996094 L 440.402344 421.996094 C 439.386719 424.613281 438.882812 427.484375 438.882812 430.4375 C 438.882812 437.445312 441.753906 443.777344 446.3125 448.339844 C 450.871094 452.898438 457.203125 455.769531 464.210938 455.769531 L 472.824219 455.769531 C 473.078125 460.664062 474.007812 465.394531 475.441406 469.953125 L 472.488281 470.96875 C 471.726562 467.082031 468.265625 464.210938 464.210938 464.210938 L 447.324219 464.210938 C 442.679688 464.210938 438.882812 468.011719 438.882812 472.65625 L 438.882812 489.542969 L 337.136719 489.542969 C 332.914062 442.175781 293.144531 405.105469 244.679688 405.105469 C 222.21875 405.105469 201.617188 413.042969 185.574219 426.300781 L 185.574219 185.574219 L 540.203125 185.574219 L 540.203125 312.226562 L 520.613281 305.726562 C 516.816406 304.460938 512.847656 303.785156 508.878906 303.785156 L 507.78125 303.785156 C 491.824219 303.785156 477.722656 314 472.65625 329.117188 Z M 472.65625 329.117188 " fill-opacity="1" fill-rule="nonzero"/><path fill="#fcd770" d="M 607.753906 658.414062 L 565.535156 658.414062 L 548.648438 582.421875 L 555.234375 556.164062 L 573.976562 565.535156 L 582.253906 524.160156 L 590.019531 524.921875 C 628.859375 528.804688 658.414062 561.480469 658.414062 600.492188 L 658.414062 658.414062 Z M 607.753906 658.414062 " fill-opacity="1" fill-rule="nonzero"/><path fill="#fcd770" d="M 472.65625 624.640625 L 421.996094 624.640625 L 421.996094 600.492188 C 421.996094 561.480469 451.546875 528.804688 490.386719 524.921875 L 497.984375 524.160156 L 498.15625 524.160156 L 506.429688 565.535156 L 525.175781 556.164062 L 531.761719 582.421875 L 514.875 658.414062 L 472.65625 658.414062 Z M 472.65625 624.640625 " fill-opacity="1" fill-rule="nonzero"/><path fill="#f29ed0" d="M 548.648438 582.421875 L 565.535156 658.414062 L 514.875 658.414062 L 531.761719 582.421875 Z M 548.648438 582.421875 " fill-opacity="1" fill-rule="nonzero"/><path fill="#ec87c0" d="M 555.234375 556.164062 L 548.648438 582.421875 L 531.761719 582.421875 L 525.175781 556.164062 L 540.203125 548.648438 Z M 555.234375 556.164062 " fill-opacity="1" fill-rule="nonzero"/><path fill="#ffc729" d="M 540.203125 540.203125 L 573.976562 523.316406 L 582.253906 524.160156 L 573.976562 565.535156 L 540.203125 548.648438 L 525.175781 556.164062 L 506.429688 565.535156 L 498.15625 524.160156 L 506.429688 523.316406 Z M 540.203125 540.203125 " fill-opacity="1" fill-rule="nonzero"/><path fill="#b4dd7f" d="M 354.445312 303.785156 L 354.445312 329.117188 C 354.445312 333.757812 350.644531 337.558594 346.003906 337.558594 L 244.679688 337.558594 C 240.035156 337.558594 236.234375 333.757812 236.234375 329.117188 L 236.234375 227.792969 C 236.234375 223.148438 240.035156 219.347656 244.679688 219.347656 L 346.003906 219.347656 C 350.644531 219.347656 354.445312 223.148438 354.445312 227.792969 Z M 354.445312 303.785156 " fill-opacity="1" fill-rule="nonzero"/><path fill="#fcd770" d="M 346.003906 337.558594 C 350.644531 337.558594 354.445312 333.757812 354.445312 329.117188 L 354.445312 303.785156 L 447.324219 303.785156 C 451.96875 303.785156 455.769531 307.585938 455.769531 312.226562 L 455.769531 338.066406 C 445.296875 345.328125 438.882812 357.402344 438.882812 370.402344 C 438.882812 376.566406 440.316406 382.648438 443.019531 388.136719 L 452.898438 407.808594 C 447.070312 410.679688 442.511719 415.746094 440.402344 421.996094 L 346.003906 421.996094 C 341.359375 421.996094 337.558594 418.195312 337.558594 413.550781 L 337.558594 337.558594 Z M 346.003906 337.558594 " fill-opacity="1" fill-rule="nonzero"/><path fill="#656d78" d="M 641.527344 370.402344 C 641.527344 376.566406 640.089844 382.648438 637.390625 388.136719 L 627.511719 407.808594 C 624.132812 406.121094 620.25 405.105469 616.195312 405.105469 L 607.753906 405.105469 L 607.753906 386.785156 C 607.753906 382.308594 605.980469 378.003906 602.769531 374.792969 L 590.867188 362.890625 L 582.421875 371.332031 C 577.019531 376.738281 569.671875 379.777344 562.074219 379.777344 L 560.554688 379.777344 C 552.953125 379.777344 545.609375 376.738281 540.203125 371.332031 C 534.800781 376.738281 527.453125 379.777344 519.855469 379.777344 L 518.335938 379.777344 C 510.734375 379.777344 503.390625 376.738281 497.984375 371.332031 L 489.542969 362.890625 L 477.636719 374.792969 C 474.429688 378.003906 472.65625 382.308594 472.65625 386.785156 L 472.65625 405.105469 L 464.210938 405.105469 C 460.160156 405.105469 456.273438 406.121094 452.898438 407.808594 L 443.019531 388.136719 C 440.316406 382.648438 438.882812 376.566406 438.882812 370.402344 C 438.882812 357.402344 445.296875 345.328125 455.769531 338.066406 C 457.371094 336.96875 458.976562 335.953125 460.75 335.109375 L 472.65625 329.117188 C 477.722656 314 491.824219 303.785156 507.78125 303.785156 L 508.878906 303.785156 C 512.847656 303.785156 516.816406 304.460938 520.613281 305.726562 L 540.203125 312.226562 L 559.792969 305.726562 C 563.59375 304.460938 567.5625 303.785156 571.53125 303.785156 L 572.628906 303.785156 C 580.5625 303.785156 588.164062 306.316406 594.242188 310.792969 C 600.40625 315.269531 605.21875 321.515625 607.753906 329.117188 L 619.65625 335.109375 C 626.328125 338.402344 631.816406 343.554688 635.617188 349.632812 C 639.414062 355.796875 641.527344 362.890625 641.527344 370.402344 Z M 641.527344 370.402344 " fill-opacity="1" fill-rule="nonzero"/><path fill="#e6e9ed" d="M 337.136719 489.542969 C 337.390625 492.328125 337.558594 495.117188 337.558594 497.984375 C 337.558594 506.765625 336.375 515.296875 334.011719 523.316406 C 323.035156 562.324219 287.234375 590.867188 244.679688 590.867188 C 193.34375 590.867188 151.800781 549.324219 151.800781 497.984375 C 151.800781 469.109375 164.972656 443.355469 185.574219 426.300781 C 201.617188 413.042969 222.21875 405.105469 244.679688 405.105469 C 293.144531 405.105469 332.914062 442.175781 337.136719 489.542969 Z M 337.136719 489.542969 " fill-opacity="1" fill-rule="nonzero"/><path fill="#f29ed0" d="M 281.15625 485.660156 C 284.703125 488.105469 286.898438 492.160156 286.898438 496.464844 L 286.898438 499.507812 C 286.898438 503.8125 284.703125 507.863281 281.15625 510.3125 L 239.527344 538.007812 C 237.332031 539.445312 234.886719 540.203125 232.351562 540.203125 C 225.175781 540.203125 219.347656 534.378906 219.347656 527.199219 L 219.347656 468.773438 C 219.347656 461.59375 225.175781 455.769531 232.351562 455.769531 C 234.886719 455.769531 237.332031 456.527344 239.527344 457.964844 Z M 281.15625 485.660156 " fill-opacity="1" fill-rule="nonzero"/><path fill="#aab2bd" d="M 472.65625 624.640625 L 472.65625 658.414062 L 396.664062 658.414062 C 392.019531 658.414062 388.21875 654.613281 388.21875 649.96875 L 388.21875 624.640625 Z M 472.65625 624.640625 " fill-opacity="1" fill-rule="nonzero"/><path fill="#f0d0b4" d="M 627.511719 407.808594 C 635.871094 411.945312 641.527344 420.472656 641.527344 430.4375 C 641.527344 437.445312 638.65625 443.777344 634.097656 448.339844 C 629.535156 452.898438 623.203125 455.769531 616.195312 455.769531 L 607.582031 455.769531 C 607.667969 454.417969 607.753906 453.152344 607.753906 451.800781 L 607.753906 405.105469 L 616.195312 405.105469 C 620.25 405.105469 624.132812 406.121094 627.511719 407.808594 Z M 627.511719 407.808594 " fill-opacity="1" fill-rule="nonzero"/><path fill="#f0d0b4" d="M 464.210938 455.769531 C 457.203125 455.769531 450.871094 452.898438 446.3125 448.339844 C 441.753906 443.777344 438.882812 437.445312 438.882812 430.4375 C 438.882812 427.484375 439.386719 424.613281 440.402344 421.996094 C 442.511719 415.746094 447.070312 410.679688 452.898438 407.808594 C 456.273438 406.121094 460.160156 405.105469 464.210938 405.105469 L 472.65625 405.105469 L 472.65625 451.800781 C 472.65625 453.152344 472.738281 454.417969 472.824219 455.769531 Z M 464.210938 455.769531 " fill-opacity="1" fill-rule="nonzero"/><path fill="#f0d0b4" d="M 607.753906 405.105469 L 607.753906 451.800781 C 607.753906 453.152344 607.667969 454.417969 607.582031 455.769531 C 606.992188 465.902344 603.785156 475.527344 598.632812 483.886719 C 592.722656 493.34375 584.277344 501.195312 573.976562 506.429688 L 573.976562 523.316406 L 540.203125 540.203125 L 506.429688 523.316406 L 506.429688 506.429688 C 491.316406 498.832031 480.339844 485.574219 475.441406 469.953125 C 474.007812 465.394531 473.078125 460.664062 472.824219 455.769531 C 472.738281 454.417969 472.65625 453.152344 472.65625 451.800781 L 472.65625 386.785156 C 472.65625 382.308594 474.429688 378.003906 477.636719 374.792969 L 489.542969 362.890625 L 497.984375 371.332031 C 503.390625 376.738281 510.734375 379.777344 518.335938 379.777344 L 519.855469 379.777344 C 527.453125 379.777344 534.800781 376.738281 540.203125 371.332031 C 545.609375 376.738281 552.953125 379.777344 560.554688 379.777344 L 562.074219 379.777344 C 569.671875 379.777344 577.019531 376.738281 582.421875 371.332031 L 590.867188 362.890625 L 602.769531 374.792969 C 605.980469 378.003906 607.753906 382.308594 607.753906 386.785156 Z M 607.753906 405.105469 " fill-opacity="1" fill-rule="nonzero"/><path fill="#aab2bd" d="M 472.65625 472.65625 L 472.65625 489.542969 C 472.65625 494.1875 468.855469 497.984375 464.210938 497.984375 L 447.324219 497.984375 C 442.679688 497.984375 438.882812 494.1875 438.882812 489.542969 L 438.882812 472.65625 C 438.882812 468.011719 442.679688 464.210938 447.324219 464.210938 L 464.210938 464.210938 C 468.265625 464.210938 471.726562 467.082031 472.488281 470.96875 C 472.570312 471.472656 472.65625 472.066406 472.65625 472.65625 Z M 472.65625 472.65625 " fill-opacity="1" fill-rule="nonzero"/><path fill="#000000" d="M 514.875 405.105469 C 514.875 405.660156 514.820312 406.210938 514.710938 406.753906 C 514.601562 407.296875 514.441406 407.824219 514.230469 408.339844 C 514.019531 408.851562 513.757812 409.335938 513.449219 409.796875 C 513.140625 410.257812 512.792969 410.6875 512.398438 411.078125 C 512.007812 411.46875 511.582031 411.820312 511.121094 412.128906 C 510.660156 412.4375 510.171875 412.695312 509.660156 412.90625 C 509.148438 413.121094 508.621094 413.28125 508.078125 413.386719 C 507.535156 413.496094 506.984375 413.550781 506.429688 413.550781 C 505.875 413.550781 505.328125 413.496094 504.78125 413.386719 C 504.238281 413.28125 503.710938 413.121094 503.199219 412.90625 C 502.6875 412.695312 502.199219 412.4375 501.738281 412.128906 C 501.277344 411.820312 500.851562 411.46875 500.460938 411.078125 C 500.066406 410.6875 499.71875 410.257812 499.410156 409.796875 C 499.101562 409.335938 498.839844 408.851562 498.628906 408.339844 C 498.417969 407.824219 498.257812 407.296875 498.148438 406.753906 C 498.039062 406.210938 497.984375 405.660156 497.984375 405.105469 C 497.984375 404.554688 498.039062 404.003906 498.148438 403.460938 C 498.257812 402.917969 498.417969 402.386719 498.628906 401.875 C 498.839844 401.363281 499.101562 400.878906 499.410156 400.417969 C 499.71875 399.957031 500.066406 399.527344 500.460938 399.136719 C 500.851562 398.746094 501.277344 398.394531 501.738281 398.085938 C 502.199219 397.777344 502.6875 397.519531 503.199219 397.304688 C 503.710938 397.09375 504.238281 396.933594 504.78125 396.824219 C 505.328125 396.71875 505.875 396.664062 506.429688 396.664062 C 506.984375 396.664062 507.535156 396.71875 508.078125 396.824219 C 508.621094 396.933594 509.148438 397.09375 509.660156 397.304688 C 510.171875 397.519531 510.660156 397.777344 511.121094 398.085938 C 511.582031 398.394531 512.007812 398.746094 512.398438 399.136719 C 512.792969 399.527344 513.140625 399.957031 513.449219 400.417969 C 513.757812 400.878906 514.019531 401.363281 514.230469 401.875 C 514.441406 402.386719 514.601562 402.917969 514.710938 403.460938 C 514.820312 404.003906 514.875 404.554688 514.875 405.105469 Z M 514.875 405.105469 " fill-opacity="1" fill-rule="nonzero"/><path fill="#000000" d="M 582.421875 405.105469 C 582.421875 405.660156 582.367188 406.210938 582.257812 406.753906 C 582.152344 407.296875 581.992188 407.824219 581.777344 408.339844 C 581.566406 408.851562 581.308594 409.335938 581 409.796875 C 580.691406 410.257812 580.339844 410.6875 579.949219 411.078125 C 579.554688 411.46875 579.128906 411.820312 578.667969 412.128906 C 578.207031 412.4375 577.722656 412.695312 577.210938 412.90625 C 576.695312 413.121094 576.167969 413.28125 575.625 413.386719 C 575.082031 413.496094 574.53125 413.550781 573.976562 413.550781 C 573.421875 413.550781 572.875 413.496094 572.332031 413.386719 C 571.785156 413.28125 571.257812 413.121094 570.746094 412.90625 C 570.234375 412.695312 569.75 412.4375 569.289062 412.128906 C 568.824219 411.820312 568.398438 411.46875 568.007812 411.078125 C 567.617188 410.6875 567.265625 410.257812 566.957031 409.796875 C 566.648438 409.335938 566.390625 408.851562 566.175781 408.339844 C 565.964844 407.824219 565.804688 407.296875 565.695312 406.753906 C 565.589844 406.210938 565.535156 405.660156 565.535156 405.105469 C 565.535156 404.554688 565.589844 404.003906 565.695312 403.460938 C 565.804688 402.917969 565.964844 402.386719 566.175781 401.875 C 566.390625 401.363281 566.648438 400.878906 566.957031 400.417969 C 567.265625 399.957031 567.617188 399.527344 568.007812 399.136719 C 568.398438 398.746094 568.824219 398.394531 569.289062 398.085938 C 569.75 397.777344 570.234375 397.519531 570.746094 397.304688 C 571.257812 397.09375 571.785156 396.933594 572.332031 396.824219 C 572.875 396.71875 573.421875 396.664062 573.976562 396.664062 C 574.53125 396.664062 575.082031 396.71875 575.625 396.824219 C 576.167969 396.933594 576.695312 397.09375 577.210938 397.304688 C 577.722656 397.519531 578.207031 397.777344 578.667969 398.085938 C 579.128906 398.394531 579.554688 398.746094 579.949219 399.136719 C 580.339844 399.527344 580.691406 399.957031 581 400.417969 C 581.308594 400.878906 581.566406 401.363281 581.777344 401.875 C 581.992188 402.386719 582.152344 402.917969 582.257812 403.460938 C 582.367188 404.003906 582.421875 404.554688 582.421875 405.105469 Z M 582.421875 405.105469 " fill-opacity="1" fill-rule="nonzero"/><path fill="#000000" d="M 557.089844 453.777344 C 553.875 460.210938 547.40625 464.210938 540.203125 464.210938 C 533 464.210938 526.535156 460.210938 523.316406 453.777344 L 522.429688 451.996094 L 507.324219 459.550781 L 508.210938 461.332031 C 514.308594 473.523438 526.566406 481.097656 540.203125 481.097656 C 553.839844 481.097656 566.101562 473.523438 572.195312 461.324219 L 573.082031 459.542969 L 557.976562 451.984375 Z M 557.089844 453.777344 " fill-opacity="1" fill-rule="nonzero"/><path fill="#000000" d="M 552.421875 431.324219 L 542.085938 426.164062 L 548.21875 407.773438 L 532.191406 402.4375 L 521.433594 434.710938 L 544.875 446.4375 Z M 552.421875 431.324219 " fill-opacity="1" fill-rule="nonzero"/><g clip-path="url(#8bf7eeebae)"><path fill="#000000" d="M 590.824219 516.511719 L 582.421875 515.675781 L 582.421875 511.429688 C 599.789062 501.050781 611.433594 483.859375 614.964844 464.210938 L 616.195312 464.210938 C 634.824219 464.210938 649.96875 449.0625 649.96875 430.4375 C 649.96875 420.304688 645.394531 411.304688 638.300781 405.105469 L 644.902344 391.902344 C 648.222656 385.273438 649.96875 377.851562 649.96875 370.4375 C 649.96875 352.140625 639.804688 335.703125 623.441406 327.519531 L 614.464844 323.035156 C 607.378906 306.324219 590.992188 295.339844 572.601562 295.339844 L 571.539062 295.339844 C 566.640625 295.339844 561.8125 296.125 557.148438 297.671875 L 548.648438 300.507812 L 548.648438 194.019531 C 557.960938 194.019531 565.535156 186.445312 565.535156 177.132812 L 565.535156 160.246094 C 565.535156 150.929688 557.960938 143.355469 548.648438 143.355469 L 177.132812 143.355469 C 167.816406 143.355469 160.246094 150.929688 160.246094 160.246094 L 160.246094 177.132812 C 160.246094 186.445312 167.816406 194.019531 177.132812 194.019531 L 177.132812 422.679688 C 156.460938 441.246094 143.355469 468.078125 143.355469 497.984375 C 143.355469 553.855469 188.808594 599.308594 244.679688 599.308594 C 288.695312 599.308594 326.132812 571.046875 340.09375 531.761719 L 379.777344 531.761719 L 379.777344 649.96875 C 379.777344 659.285156 387.351562 666.855469 396.664062 666.855469 L 666.855469 666.855469 L 666.855469 600.53125 C 666.855469 556.964844 634.171875 520.851562 590.824219 516.511719 Z M 413.550781 616.195312 L 396.664062 616.195312 L 396.664062 506.429688 C 396.664062 497.117188 404.238281 489.542969 413.550781 489.542969 L 430.4375 489.542969 C 430.4375 498.855469 438.011719 506.429688 447.324219 506.429688 L 464.210938 506.429688 C 471.355469 506.429688 477.433594 501.964844 479.898438 495.679688 C 484.925781 501.828125 490.945312 507.222656 497.984375 511.417969 L 497.984375 515.667969 L 489.585938 516.511719 C 446.234375 520.851562 413.550781 556.964844 413.550781 600.53125 Z M 435.132812 413.550781 L 346.003906 413.550781 L 346.003906 346.003906 C 355.316406 346.003906 362.890625 338.429688 362.890625 329.117188 L 362.890625 312.226562 L 447.324219 312.226562 L 447.324219 333.988281 C 436.746094 342.960938 430.4375 356.109375 430.4375 370.445312 C 430.4375 377.851562 432.195312 385.273438 435.503906 391.910156 L 442.105469 405.105469 C 439.335938 407.53125 437 410.359375 435.132812 413.550781 Z M 244.679688 329.117188 L 244.679688 227.792969 L 346.003906 227.792969 L 346.011719 329.117188 Z M 464.210938 447.324219 C 454.898438 447.324219 447.324219 439.75 447.324219 430.4375 C 447.324219 421.125 454.898438 413.550781 464.210938 413.550781 Z M 464.21875 489.542969 L 447.324219 489.542969 L 447.324219 472.65625 L 464.210938 472.65625 Z M 529.769531 544.425781 L 512.542969 553.039062 L 508.71875 533.898438 Z M 538.53125 590.867188 L 541.875 590.867188 L 555.015625 649.96875 L 525.402344 649.96875 Z M 542.054688 573.976562 L 538.355469 573.976562 L 535.027344 560.679688 L 540.203125 558.085938 L 545.378906 560.679688 Z M 550.640625 544.425781 L 571.691406 533.898438 L 567.863281 553.039062 Z M 599.308594 451.78125 C 599.308594 471.851562 588.15625 489.90625 570.203125 498.882812 L 565.535156 501.210938 L 565.535156 518.097656 L 540.203125 530.765625 L 514.875 518.097656 L 514.875 501.210938 L 510.203125 498.882812 C 492.253906 489.898438 481.097656 471.851562 481.097656 451.78125 L 481.097656 386.777344 C 481.097656 384.523438 481.976562 382.394531 483.574219 380.796875 L 489.542969 374.828125 L 492.015625 377.300781 C 499.050781 384.34375 508.414062 388.21875 518.367188 388.21875 L 519.820312 388.21875 C 527.175781 388.21875 534.199219 386.109375 540.203125 382.167969 C 546.207031 386.109375 553.230469 388.21875 560.585938 388.21875 L 562.039062 388.21875 C 571.992188 388.21875 581.359375 384.34375 588.390625 377.300781 L 590.867188 374.828125 L 596.835938 380.796875 C 598.429688 382.394531 599.308594 384.523438 599.308594 386.777344 Z M 616.195312 447.324219 L 616.195312 413.550781 C 625.507812 413.550781 633.082031 421.125 633.082031 430.4375 C 633.082031 439.75 625.507812 447.324219 616.195312 447.324219 Z M 562.503906 313.699219 C 565.425781 312.726562 568.472656 312.226562 571.546875 312.226562 L 572.609375 312.226562 C 584.9375 312.226562 595.839844 320.089844 599.738281 331.785156 L 600.84375 335.101562 L 615.890625 342.625 C 626.496094 347.925781 633.082031 358.589844 633.082031 370.445312 C 633.082031 375.242188 631.941406 380.054688 629.796875 384.351562 L 623.261719 397.441406 C 620.976562 396.941406 618.621094 396.664062 616.195312 396.664062 L 616.195312 386.777344 C 616.195312 380.011719 613.5625 373.648438 608.773438 368.859375 L 590.867188 350.949219 L 576.453125 365.363281 C 572.660156 369.15625 567.402344 371.332031 562.039062 371.332031 L 560.585938 371.332031 C 555.226562 371.332031 549.964844 369.15625 546.171875 365.363281 L 540.203125 359.394531 L 534.234375 365.363281 C 530.441406 369.15625 525.183594 371.332031 519.820312 371.332031 L 518.367188 371.332031 C 513.007812 371.332031 507.746094 369.15625 503.957031 365.363281 L 489.542969 350.949219 L 471.632812 368.859375 C 466.847656 373.636719 464.210938 380.003906 464.210938 386.777344 L 464.210938 396.664062 C 461.789062 396.664062 459.433594 396.941406 457.152344 397.433594 L 450.609375 384.34375 C 448.464844 380.054688 447.324219 375.242188 447.324219 370.445312 C 447.324219 358.589844 453.910156 347.925781 464.515625 342.632812 L 479.5625 335.109375 L 480.667969 331.792969 C 484.570312 320.089844 495.46875 312.226562 507.796875 312.226562 L 508.863281 312.226562 C 511.933594 312.226562 514.984375 312.726562 517.90625 313.699219 L 540.203125 321.128906 Z M 177.132812 160.246094 L 548.648438 160.246094 L 548.65625 177.132812 L 177.132812 177.132812 Z M 244.679688 582.421875 C 198.121094 582.421875 160.246094 544.542969 160.246094 497.984375 C 160.246094 451.429688 198.121094 413.550781 244.679688 413.550781 C 291.238281 413.550781 329.113281 451.429688 329.113281 497.984375 C 329.113281 544.542969 291.238281 582.421875 244.679688 582.421875 Z M 344.472656 514.875 C 345.402344 509.367188 346.003906 503.753906 346.003906 497.984375 L 380.976562 497.984375 C 380.265625 500.703125 379.777344 503.5 379.777344 506.429688 L 379.777344 514.875 Z M 391.445312 481.097656 L 344.472656 481.097656 C 336.402344 433.257812 294.785156 396.664062 244.679688 396.664062 C 226.214844 396.664062 208.945312 401.710938 194.019531 410.375 L 194.019531 194.019531 L 531.761719 194.019531 L 531.761719 300.515625 L 523.242188 297.679688 C 518.589844 296.125 513.757812 295.339844 508.863281 295.339844 L 507.796875 295.339844 C 489.40625 295.339844 473.019531 306.324219 465.933594 323.035156 L 464.210938 323.898438 L 464.210938 312.226562 C 464.210938 302.914062 456.636719 295.339844 447.324219 295.339844 L 362.890625 295.339844 L 362.890625 227.792969 C 362.890625 218.480469 355.316406 210.90625 346.003906 210.90625 L 244.679688 210.90625 C 235.367188 210.90625 227.792969 218.480469 227.792969 227.792969 L 227.792969 329.117188 C 227.792969 338.429688 235.367188 346.003906 244.679688 346.003906 L 329.113281 346.003906 L 329.113281 413.550781 C 329.113281 422.863281 336.6875 430.4375 346.003906 430.4375 L 430.4375 430.4375 C 430.4375 440.941406 435.359375 450.230469 442.910156 456.425781 C 435.75 458.386719 430.4375 464.878906 430.4375 472.65625 L 413.550781 472.65625 C 405.066406 472.65625 397.390625 475.90625 391.445312 481.097656 Z M 464.210938 649.96875 L 396.664062 649.96875 L 396.664062 633.082031 L 464.210938 633.082031 Z M 481.097656 624.640625 L 481.097656 585.917969 C 481.097656 575.960938 477.222656 566.597656 470.179688 559.566406 L 458.242188 571.503906 C 462.035156 575.296875 464.210938 580.554688 464.210938 585.917969 L 464.210938 616.195312 L 430.4375 616.195312 L 430.4375 600.53125 C 430.4375 565.6875 456.585938 536.785156 491.265625 533.324219 L 491.375 533.3125 L 500.324219 578.039062 L 519.558594 568.421875 L 523.089844 582.546875 L 508.101562 649.96875 L 481.097656 649.96875 Z M 649.96875 649.96875 L 616.195312 649.96875 L 616.195312 585.917969 C 616.195312 580.554688 618.375 575.296875 622.164062 571.503906 L 610.226562 559.566406 C 603.183594 566.597656 599.308594 575.960938 599.308594 585.917969 L 599.308594 649.96875 L 572.304688 649.96875 L 557.320312 582.539062 L 560.847656 568.414062 L 580.082031 578.03125 L 589.03125 533.304688 L 589.144531 533.3125 C 623.820312 536.785156 649.96875 565.6875 649.96875 600.53125 Z M 649.96875 649.96875 " fill-opacity="1" fill-rule="nonzero"/></g><path fill="#000000" d="M 285.808594 478.667969 L 244.179688 450.914062 C 240.652344 448.566406 236.546875 447.324219 232.308594 447.324219 C 220.503906 447.324219 210.90625 456.925781 210.90625 468.730469 L 210.90625 527.242188 C 210.90625 539.046875 220.503906 548.648438 232.308594 548.648438 C 236.546875 548.648438 240.652344 547.40625 244.179688 545.050781 L 285.808594 517.296875 C 291.777344 513.328125 295.339844 506.667969 295.339844 499.488281 L 295.339844 496.484375 C 295.339844 489.304688 291.777344 482.644531 285.808594 478.667969 Z M 278.453125 499.488281 C 278.453125 501 277.703125 502.410156 276.445312 503.246094 L 234.816406 531 C 231.988281 532.867188 227.792969 530.621094 227.792969 527.242188 L 227.792969 468.730469 C 227.792969 466.238281 229.820312 464.210938 232.308594 464.210938 C 233.203125 464.210938 234.066406 464.472656 234.816406 464.972656 L 276.445312 492.726562 C 277.703125 493.570312 278.453125 494.972656 278.453125 496.484375 Z M 278.453125 499.488281 " fill-opacity="1" fill-rule="nonzero"/><path fill="#000000" d="M 261.566406 616.195312 L 278.453125 616.195312 L 278.453125 633.082031 L 261.566406 633.082031 Z M 261.566406 616.195312 " fill-opacity="1" fill-rule="nonzero"/><path fill="#000000" d="M 295.339844 616.195312 L 312.226562 616.195312 L 312.226562 633.082031 L 295.339844 633.082031 Z M 295.339844 616.195312 " fill-opacity="1" fill-rule="nonzero"/><path fill="#000000" d="M 329.113281 616.195312 L 346.003906 616.195312 L 346.003906 633.082031 L 329.113281 633.082031 Z M 329.113281 616.195312 " fill-opacity="1" fill-rule="nonzero"/><path fill="#000000" d="M 379.777344 227.792969 L 413.550781 227.792969 L 413.550781 244.679688 L 379.777344 244.679688 Z M 379.777344 227.792969 " fill-opacity="1" fill-rule="nonzero"/><path fill="#000000" d="M 430.4375 227.792969 L 497.984375 227.792969 L 497.984375 244.679688 L 430.4375 244.679688 Z M 430.4375 227.792969 " fill-opacity="1" fill-rule="nonzero"/><path fill="#000000" d="M 379.777344 261.566406 L 481.097656 261.566406 L 481.097656 278.453125 L 379.777344 278.453125 Z M 379.777344 261.566406 " fill-opacity="1" fill-rule="nonzero"/></svg>